<svg width="52" height="52" viewBox="0 0 52 52" fill="none" xmlns="http://www.w3.org/2000/svg">
<path d="M51 26C51 39.8071 39.8071 51 26 51C12.1929 51 1 39.8071 1 26C1 12.1929 12.1929 1 26 1C39.8071 1 51 12.1929 51 26Z" fill="#F1BA2C"/>
<path d="M5.5 12.5C19.3847 24.6706 21.0008 33.2037 20 49.5M37 4C33.6382 20.475 37.2195 26.4795 49 34M19.5 2.5L36.5 48M3 35C19.8898 25.8787 29.6812 21.4427 49 17.5M51 26C51 39.8071 39.8071 51 26 51C12.1929 51 1 39.8071 1 26C1 12.1929 12.1929 1 26 1C39.8071 1 51 12.1929 51 26Z" stroke="black"/>
</svg>
